<svg viewBox="0 0 242.1 124" height="50">
  <g>
    <path d="m31.48969,68.47619c0.31746,-0.31746 0.63492,-0.31746 0.95238,-0.63492c0.31746,-0.31746 0.63492,-0.31746 0.63492,-0.31746c0.31746,-0.31747 0.5376,-0.46312 0.95238,-0.63493c0.29329,-0.12148 0.63902,-0.26661 0.95238,-0.31746c0.99094,-0.1608 2.2392,-0.17159 2.85714,-0.31746c0.69088,-0.16309 0.95238,-0.63492 0.95238,-0.63492c0.31746,-0.31747 1.26984,-0.63493 1.90476,-0.95238c0.63492,-0.31746 0.63492,-0.31746 0.95238,-0.31746c0.31746,0 0.63492,-0.31746 0.63492,-0.31746c0.31746,-0.31746 0.27071,-0.37241 0.63492,-0.63492c0.57587,-0.41506 0.95238,-0.31746 1.26984,-0.63492c0.31746,-0.31746 0.22014,-0.46311 0.63492,-0.63492c0.29329,-0.12149 0.36579,-0.39195 0.95238,-0.63492c0.41478,-0.17181 0.50342,-0.50342 0.95238,-0.95238c0.44896,-0.44896 0.65909,-0.19597 0.95238,-0.31746c0.41478,-0.17181 0.34163,-0.19598 0.63492,-0.31746c0.41478,-0.17181 0.63492,-0.63492 1.26984,-0.95238c0.63492,-0.31746 0.95238,-0.31746 1.26984,-0.63492c0.31746,-0.31746 0.72791,-0.72791 0.95238,-0.95238c0.22448,-0.22448 0.46311,0.09732 0.63492,-0.31746c0.12149,-0.29329 0,-0.63491 0.31746,-0.95238c0.31746,-0.31746 0.63492,-0.63492 0.63492,-0.63492c0,-0.31746 -0.04833,-0.07449 -0.63492,-0.31746c-0.41478,-0.17181 -0.63492,-0.63492 -0.95238,-1.26984c0,0 -0.63492,-0.31746 -0.63492,-0.31746c0,-0.31746 -0.31746,-0.31746 -0.31746,-0.31746c-0.31746,0 -0.22014,-0.46312 -0.63492,-0.63492c-0.29329,-0.12149 -0.31746,0 -0.63492,0c0,0 -0.95648,0.58407 -1.26984,0.63492c-0.99094,0.1608 -1.26984,0.31746 -1.26984,0.31746c-0.31746,0 -0.41044,0.41044 -0.63492,0.63492c-0.44896,0.44896 -0.95238,0.31746 -0.95238,0.31746c-0.63492,0.31746 -0.63492,0.31746 -0.95238,0.63492c0,0 -0.63492,0 -0.63492,0c-0.31746,0.31746 -0.59637,0.79157 -1.5873,0.95238c-0.31336,0.05085 -1.2141,0.03107 -1.5873,0.63492c-0.1669,0.27005 -0.95238,0.63492 -0.95238,0.63492c-0.95238,0.63492 -1.61147,0.83089 -1.90476,0.95238c-0.41478,0.17181 -0.63492,0.31746 -1.26984,0.63492c0,0 -0.31746,0.31746 -0.63492,0.31746c0,0 -0.63492,0.63492 -0.63492,0.63492c-0.31746,0.31746 -0.78057,0.22014 -0.95238,0.63492c-0.12149,0.29329 -0.27071,0.37241 -0.63492,0.63492c-0.57587,0.41506 -0.5376,0.78057 -0.95238,0.95238c-0.58659,0.24297 -0.85506,0.46311 -1.26984,0.63492c-0.2933,0.12149 -0.22014,0.14565 -0.63492,0.31746c-0.58659,0.24297 -1.27833,-0.07294 -1.5873,0c-0.69087,0.16309 -0.63492,0.31746 -0.95238,0.63492c0,0 -0.63492,0.31746 -0.63492,0.31746c-0.31746,0 -0.31746,0 -0.63492,0.31746c-0.31746,0.31746 -0.95238,0.63492 -0.95238,0.63492c-0.31746,0 -0.31746,-0.95238 -0.31746,-1.26984c0,-0.31746 0.31746,-0.31746 0.63492,-0.95238c0,0 0.31746,-0.31746 0.31746,-0.31746c0,-0.31746 0.14565,-0.22014 0.31746,-0.63492c0.12149,-0.29329 0,-0.63492 0,-0.63492c0,-0.31746 0,-0.63492 0,-0.95238c0,0 0.31746,-0.31746 0.31746,-0.63492c0,-0.31746 0,-0.31746 0,-0.63492c0,0 -0.12148,-0.34163 0,-0.63492c0.17181,-0.41478 0.63492,-0.63492 0.63492,-0.63492c0,-0.31746 0,-0.63492 0,-0.63492c0,-0.31746 0.46311,-0.85506 0.63492,-1.26984c0.12148,-0.29329 0.02417,-0.51343 0.31746,-0.63492c0.41478,-0.17181 0.31746,-0.63492 0.31746,-0.63492c0.31746,-0.31746 0.31746,-0.31746 0.63492,-0.63492c0.31746,-0.31746 0.31746,-0.63492 0.31746,-0.95238c0,0 0.14565,-0.22014 0.31746,-0.63492c0.12149,-0.2933 -0.44896,-0.50343 0,-0.95238c0.22448,-0.22448 0.51343,-0.34163 0.63492,-0.63492c0.17181,-0.41478 0.41044,-0.41044 0.63492,-0.63492c0.22448,-0.22448 -0.12149,-0.65908 0,-0.95238c0.17181,-0.41478 0.21986,-0.69397 0.63492,-1.26984c0.26251,-0.36421 0.63492,-0.63492 0.63492,-0.95238c0,-0.31746 0.19597,-0.34163 0.31746,-0.63492c0.17181,-0.41478 0.46311,-0.22014 0.63492,-0.63492c0.12149,-0.29329 0,-0.63492 0,-0.63492c0.31746,-0.31746 -0.1315,-0.50342 0.31746,-0.95238c0.22448,-0.22448 0.31746,-0.31746 0.31746,-0.31746c0,-0.31746 0,-0.63492 0.31746,-0.95238c0,0 0.47182,-0.26151 0.63492,-0.95238c0.07294,-0.30897 0.19598,-0.65909 0.31746,-0.95238c0.17181,-0.41478 0.95238,-1.26984 0.95238,-1.5873c0,-0.31746 0.09298,-0.72791 0.31746,-0.95238c0.22448,-0.22448 0.56198,-0.32595 0.63492,-0.63492c0.16309,-0.69088 0.31746,-0.63492 0.63492,-0.95238c0,0 0.31746,-0.63492 0.31746,-0.95238c0,-0.31746 0.14565,-0.85506 0.31746,-1.26984c0.12149,-0.2933 0.46311,-0.5376 0.63492,-0.95238c0.12149,-0.2933 0.31746,-0.63492 0.31746,-0.95238c0,-0.31746 0.41044,-0.09299 0.63492,-0.31746c0.22448,-0.22448 0,-0.63492 0.31746,-0.95238c0,0 0.31746,-0.31746 0.31746,-0.63492c0,-0.31746 -0.12149,-0.34163 0,-0.63492c0.17181,-0.41478 0.19597,-0.97655 0.31746,-1.26984c0.17181,-0.41478 0.24453,-0.32595 0.31746,-0.63492c0.16309,-0.69087 0.46311,-0.85506 0.63492,-1.26984c0.12149,-0.2933 0.31746,-0.31746 0.31746,-0.63492c0,-0.31746 0,-0.31746 0.31746,-0.63492c0.31746,-0.31746 0.31746,-0.63492 0.31746,-0.95238c0,0 0.14565,-0.22014 0.31746,-0.63492c0.12149,-0.29329 0.24452,-0.32595 0.31746,-0.63492c0.16309,-0.69087 0.31746,-1.26984 0.31746,-1.5873c0,0 0.26661,-0.32156 0.31746,-0.63492c0.1608,-0.99093 0.70786,-0.96087 0.63492,-1.26984c-0.16309,-0.69087 -0.31746,-0.63492 -0.31746,-0.95238c0,-0.31746 -0.24452,-0.64341 -0.31746,-0.95238c-0.16309,-0.69087 -0.46312,-0.5376 -0.63492,-0.95238c-0.12149,-0.29329 -0.31746,-0.63492 -0.63492,-1.26984c0,0 -0.19597,-0.02417 -0.31746,-0.31746c-0.17181,-0.41478 -0.63492,-0.31746 -0.95238,-0.31746c0,0 -0.31746,0 -0.63492,0c-0.31746,0 -0.31746,0.31746 -0.63492,0.31746c-0.31746,0 -0.63492,0 -0.63492,0.31746c0,0 -0.31746,0.63492 -0.31746,0.63492c-0.31746,0.31746 -0.63492,1.26984 -0.95238,1.5873c0,0 0,0.31746 0,0.63492c0,0 0.22448,0.41044 0,0.63492c-0.22448,0.22448 -0.31746,0.31746 -0.31746,0.95238c0,0 -0.31746,0.63492 -0.31746,0.63492c-0.31746,0.31746 -0.41044,0.7279 -0.63492,0.95238c-0.22448,0.22448 -0.46311,0.85506 -0.63492,1.26984c-0.12149,0.29329 -0.03283,0.60518 -0.31746,0.95238c-0.72568,0.88518 -0.65909,1.14836 -0.95238,1.26984c-0.41478,0.17181 -0.07449,0.68325 -0.31746,1.26984c-0.17181,0.41478 -0.31746,0.31746 -0.31746,0.63492c0,0 0,0.31746 0,0.31746c0,0.31746 -0.31746,0.95238 -0.31746,0.95238c0,0.31746 -0.31746,0.63492 -0.31746,0.95238c0,0 0,0.63492 0,0.95238c0,0.31746 0,0.95238 -0.31746,1.26984c0,0 -0.46311,0.5376 -0.63492,0.95238c-0.12149,0.29329 0.12149,0.34163 0,0.63492c-0.17181,0.41478 -0.46311,0.5376 -0.63492,0.95238c-0.24297,0.58659 0,0.63492 -0.31746,0.95238c-0.31746,0.31746 -0.95238,1.5873 -1.26984,1.90476c0,0 -0.31746,0.31746 -0.63492,0.95238c0,0 0.13149,0.50343 -0.31746,0.95238c-0.22448,0.22448 -0.63492,0.31746 -0.63492,0.31746c0,0.31746 -0.19598,0.65908 -0.31746,0.95238c-0.17181,0.41478 -0.63492,0.63492 -0.63492,0.95238c0,0 0,0.31746 -0.31746,0.95238c-0.31746,0.63492 -0.46311,0.85506 -0.63492,1.26984c-0.12149,0.29329 -0.31746,0.63492 -0.31746,0.95238c0,0.31746 0,0.31746 -0.31746,0.95238c0,0 -0.31746,0.63492 -0.31746,0.95238c0,0.31746 -0.14565,0.22014 -0.31746,0.63492c-0.12149,0.2933 -0.14565,0.5376 -0.31746,0.95238c-0.12149,0.2933 -0.09298,0.41044 -0.31746,0.63492c-0.44896,0.44896 -0.15437,0.57896 -0.31746,1.26984c-0.14587,0.61794 -0.63492,1.26984 -0.63492,1.26984c0,0.31746 0,0.63492 0,0.63492c-0.31746,0.63492 -0.63492,0.95238 -0.63492,0.95238c-0.31746,0.63492 -0.46311,0.85506 -0.63492,1.26984c-0.12149,0.2933 -0.31746,0.63492 -0.31746,0.63492c-0.31746,0.31746 -0.19597,0.65909 -0.31746,0.95238c-0.17181,0.41478 -0.37241,0.27071 -0.63492,0.63492c-0.41506,0.57587 -0.31746,0.63492 -0.31746,0.95238c0,0 -0.09298,0.41045 -0.31746,0.63492c-0.22448,0.22448 -0.56198,0.32595 -0.63492,0.63492c-0.16309,0.69087 -0.38778,0.57757 -0.63492,0.95238c-0.9411,1.42722 -0.95238,1.90476 -0.95238,2.22222c0,0.31746 -0.14565,0.22014 -0.31746,0.63492c-0.12148,0.29329 -0.31746,0.31746 -0.31746,0.63492c0,0.31746 -0.46311,0.85506 -0.63492,1.26984c-0.12148,0.2933 -0.31746,0.63492 -0.31746,0.63492c0,0.31746 -0.19597,0.34162 -0.31746,0.63492c-0.17181,0.41479 -0.47183,0.57897 -0.63492,1.26984c-0.07294,0.30897 0.12149,0.65908 0,0.95238c-0.17181,0.41478 -0.46311,0.5376 -0.63492,0.95238c-0.12149,0.2933 -0.05495,0.58817 -0.31746,0.95238c-0.41507,0.57587 -0.51343,1.29401 -0.63492,1.5873c-0.17181,0.41478 -0.31746,0.95238 -0.63492,1.26984c0,0 -0.31746,0.63492 -0.31746,0.63492c0,0.63493 0,0.63493 0,0.95238c0,0 -0.46311,0.22014 -0.63492,0.63492c-0.12149,0.2933 -0.31746,0.63492 -0.31746,0.95238c0,0.31746 0,0.63492 0,0.63492c-0.31746,0.63492 0.17949,1.00031 -0.63492,1.5873c-0.25754,0.18562 -0.19597,0.34162 -0.31746,0.63492c-0.17181,0.41478 -0.63492,0.95238 -0.63492,0.95238c-0.31746,0.31747 -0.31746,0.31747 -0.31746,0.63493c0,0 -0.31746,0.31746 -0.63492,0.95238c0,0 -0.31746,0.63493 -0.31746,0.95238c0,0.31746 -0.46996,0.51926 -0.95238,3.49207c-0.05085,0.31336 -0.14565,0.85506 -0.31746,1.26984c-0.24297,0.58659 0,0.63492 0,0.95238c0,0 0,0.31746 0,0.31746c0,0.31746 0.02417,0.51344 0.31746,0.63492c0.41478,0.17181 0.34163,0.19597 0.63492,0.31746c0.41478,0.17181 0.63492,0.31746 0.63492,0.31746c0.31746,0 0.46311,0.22015 0.63492,0.63493c0.12149,0.2933 0.31746,0.63492 0.63492,1.26984c0,0 0.41044,0.09299 0.63492,0.31747c0.44895,0.44895 0,0.63492 0.31746,0.95238c0,0 0.31746,0.31746 0.31746,0.31746c0,0.31746 0.31746,0.63493 0.63492,0.63493c0,0 0.31746,0.31746 0.63492,0.31746c0.31746,0 0.41044,0.22448 0.63492,0c0.22448,-0.22448 0.26151,-0.47183 0.95238,-0.63493c0.61794,-0.14587 0.8594,-0.09298 0.63492,-0.31746c-0.22448,-0.22448 0,-0.63492 0,-0.63492c0,-0.95238 0,-0.95238 0,-1.26984c0,0 0,-0.31746 0,-0.31746c0,-0.31746 0,-0.63492 0,-0.95238c0,0 0,-0.31747 0,-0.31747c0,-0.31746 0,-0.63492 0,-0.63492c0,-0.31746 0,-0.31746 0,-0.63492c0,0 0,-0.31746 0,-0.31746c0,-0.31747 0,-0.63493 0,-0.63493c0,-0.31746 -0.07294,-0.64341 0,-0.95238c0.16309,-0.69087 0.31746,-0.63492 0.31746,-1.26984c0,-0.31746 -0.22448,-0.41044 0,-0.63492c0.22448,-0.22448 0.31746,-0.63492 0.31746,-0.63492c0,-0.31747 0,-0.31747 0.31746,-0.63493c0,0 0.31746,-0.63492 0.31746,-0.63492c0.63492,-2.22222 1.26984,-3.17461 1.26984,-3.49207c0,-0.31746 0,-0.63492 0,-0.63492c0,-0.31746 0,-0.31746 0.31746,-0.95238c0,0 0,-0.31746 0,-0.31746c0,-0.31746 0.31746,-0.63492 0.31746,-0.63492c0,-0.31746 0,-0.31746 0,-0.63492c0,0 0.41044,-0.41045 0.63492,-0.63493c0.22448,-0.22448 0.19597,-0.65908 0.31746,-0.95238c0.17181,-0.41478 0.63492,-0.63493 0.95238,-0.95238c0.31746,-0.31746 0.63492,-0.63492 0.95238,-0.63492c0.31746,0 0.63492,0 0.63492,0c0.31746,0 0.31746,0 0.63492,0c0.31746,0 0.63492,0 0.63492,0c0.31746,0.31746 0.63492,0.31746 0.63492,0.31746c0.31746,0 0.31746,0 0.63492,0.31746c0,0 0.41044,-0.22448 0.63492,0c0.22448,0.22448 0.46311,0.22014 0.63492,0.63493c0.12148,0.2933 0.25075,0.65982 0.63492,1.5873c0.27165,0.65583 0.63492,0.95238 0.63492,0.95238c0.63492,0.95238 1.26984,1.90476 1.5873,2.22222c0,0 0.63492,0.31746 0.63492,0.63492c0,0.31746 0.47412,0.91383 0.63492,1.90476c0.05085,0.31336 0,0.63493 0.31746,0.95238c0.31746,0.31746 0.63492,1.26984 1.26984,1.90476c0,0 0.02417,0.51344 0.31746,0.63492c0.41478,0.17181 1.00733,0.90563 1.26984,1.26984c0.41507,0.57587 0.31746,0.63492 0.63492,0.95238c0.31746,0.31746 0.31746,0.63492 0.95238,0.95238c0.63492,0.31746 1.09803,0.5376 1.26984,0.95238c0.12149,0.2933 0.42736,0.54142 0.95238,1.26984c0.41506,0.57587 0.50343,0.18597 0.95238,0.63492c0.22448,0.22448 0.22014,0.46311 0.63492,0.63492c0.29329,0.12148 0.51343,0.02416 0.63492,0.31747c0.17181,0.41478 0.37651,0.21986 0.95238,0.63492c0.36421,0.2625 0.63902,0.26661 0.95238,0.31746c0.99094,0.1608 1.5873,0.31746 1.5873,0.31746c0.31746,0 0.31746,0 0.63492,0c0,0 0.31746,0 0.63492,0c0,0 0.31746,0 0.31746,0c0.31746,0 0.31746,0 0.63492,0c0,0 0.31746,0 0.63492,0c0.31746,0 1.26984,0 1.5873,0c0.31746,0 0.59636,-0.15665 1.5873,-0.31746c0.31336,-0.05085 1.17252,-0.78057 1.5873,-0.95238c0.29329,-0.12148 0.95238,-0.31747 0.95238,-0.31747c0.31746,-0.31746 0.31746,-0.63492 0.31746,-0.63492c0,-0.31746 0.19597,-0.65908 0.31746,-0.95238c0.17181,-0.41479 0.78057,-0.53761 0.95238,-0.95238c0.12149,-0.2933 0,-0.31746 0,-0.63492c0,0 0,-0.31746 0,-0.31746c-0.31746,-0.31747 -0.31746,-0.31747 -0.63492,-0.63493c-0.31746,-0.31746 -0.41045,-0.41044 -0.63492,-0.63492c-0.22448,-0.22448 -0.31746,-0.31746 -0.31746,-0.31746c-0.31746,0 -0.63492,0 -0.63492,0c-0.31746,0 -0.31746,0 -0.63492,0c-0.31746,0 -0.63492,0 -0.63492,0c-0.31746,0 -0.31746,0 -0.95238,0c-0.31746,0 -0.63492,0.31746 -0.63492,0.31746c-0.31746,0 -0.63492,0 -0.95238,0c0,0 -0.22014,0.14565 -0.63492,0.31746c-0.2933,0.12149 -0.95238,0 -0.95238,0c-0.31746,0 -0.27891,0.15665 -1.26984,0.31746c-0.31336,0.05085 -0.31746,0 -0.63492,0c0,0 -0.31746,0 -0.63492,0c-0.31746,0 -0.22014,-0.14565 -0.63492,-0.31746c-0.2933,-0.12149 -0.72791,-0.41044 -0.95238,-0.63492c-0.22448,-0.22448 -0.31746,-0.63492 -1.26984,-1.90476c0,0 -0.31746,0 -0.31746,0c-0.63492,-0.31746 -0.63492,-0.63492 -0.63492,-0.63492c-0.31746,0 -0.31746,-0.31747 -0.63492,-0.63493c0,0 0,-0.31746 0,-0.31746c0,-0.31746 -0.15437,-0.26151 -0.31746,-0.95238c-0.07294,-0.30898 0.28638,-0.89665 -0.31746,-1.26984c-0.27005,-0.1669 -0.34163,-0.51343 -0.63492,-0.63492c-0.41478,-0.17181 -0.31746,-0.31747 -0.63492,-0.63493c0,0 -0.09299,-0.41044 -0.31746,-0.63492c-0.22448,-0.22448 -0.47182,-0.26151 -0.63492,-0.95238c-0.07294,-0.30898 0.09732,-0.78058 -0.31746,-0.95238c-0.2933,-0.12149 -0.3847,-0.12209 -0.63492,-0.31746c-1.0317,-0.80553 -0.63492,-1.26984 -0.95238,-1.5873c0,0 -0.63492,-0.63492 -0.95238,-0.95238c-0.31746,-0.31747 -0.5376,-0.78058 -0.95238,-0.95238c-0.29329,-0.12148 -0.19597,-0.34162 -0.31746,-0.63492c-0.17181,-0.41478 -0.63492,-0.31746 -0.95238,-0.95238c0,0 -0.41044,-0.41044 -0.63492,-0.63492c-0.22448,-0.22448 0.12149,-0.65908 0,-0.95238c-0.17181,-0.41478 -0.63492,-0.63492 -0.63492,-0.95238c0,-0.31746 0.31746,-0.63492 0.63492,-0.95238c0,0 0.31746,0 0.31746,0c0.31746,0 0.63492,0 0.63492,0c0.31746,0.31746 0.31746,0.63492 0.63492,0.63492c0,0 0.63492,0 0.63492,0c0.31746,0 0.31746,-0.31746 0.63492,-0.31746c0.31746,0 0.63492,0 0.95238,-0.31746l0,-0.31747" id="svg_5" stroke="#000" fill="none"/>
  <path d="m92.44207,54.50793c-0.31746,-0.31746 -0.31746,-0.63492 -0.31746,-0.63492c0.31746,-0.63492 0.31746,-0.63492 0.63492,-0.95238c0,0 0.31746,0 0.31746,0c0.63492,-0.31746 0.95238,-0.63492 0.95238,-0.63492c0.31746,0 0.41044,-0.09298 0.63492,-0.31746c0.22448,-0.22448 0.63492,-0.31746 0.95238,-0.63492c0,0 0.22015,-0.14565 0.63493,-0.31746c0.2933,-0.12149 0.31746,0 0.63492,0c0,0 0.31746,0 0.31746,0c0.31746,0 0.63493,0 0.63493,0c0.31746,0 0.31746,0 0.63492,0c0,0 0.31746,0 0.31746,0c0.63492,0 0.89643,0.15437 1.5873,0.31746c0.61794,0.14587 2.10073,0.34163 2.22222,0.63492c0.17181,0.41478 -0.09298,0.41045 -0.31746,0.63492c-0.22448,0.22448 -0.31746,0.31746 -0.63493,0.31746c0,0 -0.31746,0.31746 -0.31746,0.31746c0,0.31746 0.14565,0.85506 0.31746,1.26984c0.12148,0.29329 -0.15437,0.57897 -0.31746,1.26984c-0.07294,0.30897 -0.31746,0.95238 -0.31746,1.26984c0,0.63492 -0.41044,0.72791 -0.63492,0.95238c-0.22448,0.22448 -0.17159,0.96936 -0.31746,1.5873c-0.16309,0.69088 -0.63493,0.95238 -0.63493,0.95238c0,0.31746 0,0.31746 0,0.63492c0,0 0,0.63492 0,0.63492c0,0.31746 0,0.63492 0,0.95238c0,0.31746 0.22448,0.72791 0,0.95238c-0.22448,0.22448 -0.31746,0.31746 -0.63492,0.63492c-0.63492,0.63492 -0.95238,0.63492 -0.95238,0.95238c0,0 -0.15437,0.26151 -0.31747,0.95238c-0.07294,0.30897 0,0.95238 -0.31746,1.5873c0,0 -0.47182,0.26151 -0.63492,0.95238c-0.07294,0.30897 0,0.95238 -0.31746,1.26984c-0.31746,0.31746 -0.41045,0.41044 -0.63493,0.63492c-0.22448,0.22448 -0.39194,0.68325 -0.63492,1.26984c-0.17181,0.41478 -0.31746,0.31746 -0.31746,0.63492c0,0 0,0.63492 0,0.95238c0,0.31746 -0.15437,0.26151 -0.31746,0.95238c-0.21881,0.92691 -0.31746,1.26984 -0.31746,1.5873c0,0.31746 0.12149,0.34162 0,0.63492c-0.17181,0.41479 -0.19598,0.65909 -0.31747,0.95238c-0.17181,0.41478 -0.31746,0.63492 -0.31746,0.95238c0,0 0,0.31746 0,0.95238c0,0.31746 0,0.31746 0,0.63492c0,0.31746 0,0.31746 0,0.63492c0,0 0,0.31746 0,0.31746c0,0.31747 0,0.63493 0,0.63493c0.31746,0.31746 0.41045,0.41044 0.63493,0.63492c0.22448,0.22448 -0.22448,0.72791 0,0.95238c0.22448,0.22448 0.63492,0.63492 0.95238,0.95238c0,0 0.19598,0.34162 0.31746,0.63492c0.17181,0.41479 0.22014,0.46312 0.63493,0.63493c0.2933,0.12148 0.41044,0.41044 0.63492,0.63492c0.22448,0.22448 0.34162,0.19598 0.63492,0.31746c0.41478,0.17181 0.31746,0.63492 0.63493,0.63492c0.31746,0 0.63492,0.31747 0.63492,0.31747c0,0.31746 0,0.31746 0,0.63492c0,0.31746 0,0.31746 0,0.63492c0,0 0,0.31746 0,0.31746c0,0.31747 0.63492,1.26984 0.63492,1.5873c0,0.31746 0,0.63493 0,0.95238c0,0.31746 0.09732,0.46311 -0.31746,0.63492c-0.2933,0.12148 -0.41044,0.09298 -0.63492,0.31746c-0.44896,0.44896 -0.63493,0 -0.95238,0.31746c0,0 -0.31746,0.31747 -0.63492,0.31747c-0.31746,0 -0.31746,0.31746 -0.63492,0.31746c0,0 -0.31747,0 -0.31747,0c-0.31746,0 -0.95238,-0.31746 -0.95238,-0.31746c-0.31746,0 -0.63492,-0.31747 -0.95238,-0.63493c0,0 -0.22014,-0.14565 -0.63492,-0.31746c-0.2933,-0.12148 -0.25742,-0.32319 -0.31746,-0.63492c-0.3233,-1.67873 -0.63492,-1.90476 -0.95238,-2.53969c0,0 -0.31746,-0.31746 -0.31746,-0.63492c0,0 -0.09298,-0.09298 -0.31746,-0.31746c-0.22448,-0.22448 -0.31746,-0.31746 -0.31746,-0.31746c-0.31746,0 -0.31746,-0.31746 -0.63492,-0.31746c-0.31746,0 -0.46311,0.09732 -0.63493,-0.31747c-0.12148,-0.2933 -0.29131,-0.12282 -0.63492,-0.95238c-0.12148,-0.2933 0,-0.95238 0,-1.26984c0,0 -0.31746,-0.31746 -0.31746,-0.63492c0,-0.31746 0,-0.63492 0,-0.95238c0,-0.31747 0,-0.63493 0,-0.95238c0,0 -0.63492,-1.26984 -0.63492,-1.5873c0,-0.31746 0,-0.31746 0,-0.63492c0,0 -0.31747,-0.31746 -0.31747,-0.63492c0,-0.31747 -0.31746,-0.31747 -0.31746,-0.31747c-0.31746,0 -0.63492,0 -0.63492,0c-0.31746,0.31747 -0.65908,0.51344 -0.95238,0.63493c-0.41478,0.17181 -0.31746,0.31746 -0.63492,0.63492c-0.31746,0.31746 -0.63492,0.31746 -1.26984,0.63492c-1.26984,0.63492 -1.78326,0.65909 -1.90475,0.95238c-0.17181,0.41479 -1.04721,0.30112 -1.5873,0.63492c-0.60385,0.3732 -0.22014,0.78058 -0.63493,0.95238c-0.2933,0.12148 -0.78057,-0.09732 -0.95238,0.31746c-0.12148,0.2933 -0.31746,0.63492 -0.63492,0.95238c0,0 -0.37652,0.53732 -0.95238,0.95238c-0.36421,0.26251 -0.63492,0.63492 -0.95238,0.95238c-0.31747,0.31746 -0.63493,0.63493 -0.63493,0.63493c-0.31746,0 -0.63492,0 -0.63492,0c-0.63492,0.31746 -0.57896,0.47182 -1.26984,0.63492c-0.30897,0.07294 -0.64341,-0.07294 -0.95238,0c-0.69087,0.16309 -0.95238,0.31746 -0.95238,0.31746c-0.31746,0 -0.31746,0 -0.95238,0c-0.31746,0 -0.63492,0 -0.95238,0c-0.31746,0 -0.22014,-0.14565 -0.63492,-0.31746c-0.2933,-0.12148 -0.31746,0 -0.63492,0c-0.31746,0 -0.31746,0 -0.63493,-0.31746c-0.31746,-0.31746 -0.63492,-0.63493 -0.95238,-0.95238c-0.31746,-0.31746 -0.41044,-0.7279 -0.63492,-0.95238c-0.22448,-0.22448 -0.22014,-0.14565 -0.63493,-0.31746c-0.2933,-0.12148 -0.31746,-0.31746 -0.95238,-0.63493c0,0 -0.51343,-0.34162 -0.63492,-0.63492c-0.17181,-0.41478 -0.34163,-0.51343 -0.63493,-0.63492c-0.41478,-0.17181 -0.31746,-0.63493 -0.31746,-0.95238c0,-0.31746 0,-0.63492 0,-0.95238c0,-0.31746 0,-0.63493 0,-0.95238c0,-0.31746 0,-0.63492 0,-0.95238c0,0 0,-0.31746 0,-0.63493c0,-0.31746 0.15437,-0.26151 0.31746,-0.95238c0.07294,-0.30897 0,-0.31746 0,-0.63492c0,0 0,-0.31746 0,-0.63493c0,-0.31746 0.14565,-0.5376 0.31746,-0.95238c0.12149,-0.2933 -0.24298,-0.36579 0,-0.95238c0.17181,-0.41478 0.63492,-0.63492 0.63492,-0.95238c0,0 0,-0.31746 0,-0.63492c0,-0.31747 0,-0.63493 0,-0.63493c0,-0.63492 0,-0.63492 0,-0.95238c0,-0.31746 0,-0.31746 0,-0.63493c0,0 0.15795,-0.2939 0.31746,-1.90476c0.03128,-0.31591 0,-0.63492 0,-0.63492c0,-0.31746 -0.67344,-1.23132 0,-1.90476c0.44895,-0.44895 0.56198,-0.32595 0.63492,-0.63492c0.16309,-0.69087 0.51344,-0.97655 0.63493,-1.26984c0.17181,-0.41478 0.34853,-0.89664 0.95238,-1.26984c0.27005,-0.1669 0.46311,-0.22014 0.63492,-0.63492c0.12149,-0.2933 0.15437,-0.26151 0.31746,-0.95238c0.07294,-0.30897 0,-0.31746 0,-0.63492c0,-0.31746 0,-0.63492 0,-0.63492c0,-0.31746 -0.05085,-0.32156 0,-0.63492c0.32162,-1.98187 0.72791,-2.31521 0.95238,-2.53968c0.22448,-0.22448 0.09298,-0.41044 0.31746,-0.63492c0.22448,-0.22448 0.31746,-0.31746 0.63492,-0.63492c0.31747,-0.31746 0.31747,-0.31746 0.63493,-0.63492c0,0 0,-0.31746 0.31746,-0.63492c0,0 0.31746,-0.31746 0.31746,-0.63492c0,-0.31746 0.37241,-0.58817 0.63492,-0.95238c0.41507,-0.57587 0.19598,-0.97655 0.31747,-1.26984c0.17181,-0.41478 0.31746,-0.31746 0.63492,-0.63492c0.31746,-0.31746 0.97654,-0.51343 1.26984,-0.63492c0.41478,-0.17181 0.63492,-0.31746 0.63492,-0.31746c0.31746,0 0.31746,-0.31746 0.63492,-0.31746c0,0 0.31746,-0.31746 0.63492,-0.31746c0,0 0.09299,-0.09298 0.31747,-0.31746c0.22448,-0.22448 0.34162,-0.12149 0.63492,0c0.41478,0.17181 1.5873,2.22222 1.5873,2.22222c0,0.31746 0.15437,0.57897 0.31746,1.26984c0.14587,0.61794 0.31746,1.26984 0.63492,1.5873c0,0 0,0.31746 0,0.63492c0,0 -0.31746,0.31746 -0.31746,0.31746c-0.31746,0 -0.63492,0.31746 -0.63492,0.31746c0,0.31746 0,0.63492 0,0.95238c0,0 -0.31746,0.31746 -0.31746,0.63492c0,0 0,0.31746 -0.31747,0.63492c0,0 -0.31746,0.31746 -0.31746,0.63492c0,0.31746 -0.24452,0.32595 -0.31746,0.63492c-0.16309,0.69088 -0.78057,0.85506 -0.95238,1.26984c-0.12149,0.2933 -0.14565,0.22014 -0.31747,0.63492c-0.12149,0.29329 -0.31746,0.31746 -0.31746,0.63492c0,0.31746 -0.46311,0.22014 -0.63492,0.63492c-0.12149,0.2933 -0.31746,0.63492 -0.31746,0.63492c0,0.31746 -0.31746,0.63492 -0.31746,0.63492c-0.31746,0.63492 -0.46311,0.53759 -0.63493,0.95238c-0.12149,0.2933 0,0.63493 0,0.95238c0,0 -0.31746,0.63492 -0.31746,0.95238c0,0 -0.46311,0.22014 -0.63492,0.63493c-0.12148,0.2933 0.12148,0.65908 0,0.95238c-0.17181,0.41478 -0.31746,0.63492 -0.31746,0.63492c0,0.31746 -0.04741,0.78548 -0.31746,0.95238c-0.60385,0.37319 -0.31747,0.95238 -0.31747,1.90476c0,0.63492 -0.31746,1.26984 -0.31746,1.26984c0,0.31747 0,0.31747 -0.31746,0.63493c0,0 0,0.31746 0,0.63492c0,0 -0.14565,0.22014 -0.31746,0.63492c-0.12149,0.2933 0,0.63493 0,0.63493c-0.31746,0.31746 -0.19598,0.34162 -0.31746,0.63492c-0.17181,0.41478 -0.31746,0.63492 -0.31746,0.95238c0,0.31746 -0.31747,0.63492 -0.31747,0.95238c0,0.31746 0,0.31746 0,0.63492c0,0.63493 0,0.63493 0,0.95238c0,0 0,0.31746 0,0.31746c0,0.31746 0.31747,0.63492 0.31747,0.63492c0.31746,0 0.31746,0 0.63492,0.31746c0,0 0.31746,0 0.95238,0.31747c0,0 0.31747,0.31746 0.31747,0.31746c0.31746,0 0.31746,0 0.63492,0c0.31746,0 0.34162,0.12148 0.63492,0c0.41478,-0.17181 0.63493,-0.31746 0.95238,-0.31746c0.31746,0 0.31746,0 0.63492,-0.31747c0.31746,-0.31746 1.26984,-0.63492 1.5873,-0.63492c0,0 0.34162,0.12148 0.63492,0c0.41478,-0.17181 0.22014,-0.46311 0.63492,-0.63492c0.2933,-0.12149 0.58817,-0.05495 0.95238,-0.31746c0.57587,-0.41507 0.63492,-0.31747 1.26984,-0.63493c0,0 0.31746,-0.31746 0.31746,-0.31746c0.31746,-0.31746 0.34162,-0.51344 0.63492,-0.63492c0.41478,-0.17181 0.41044,-0.41044 0.63492,-0.63492c0.22448,-0.22448 0.41045,-0.41045 0.63493,-0.63493c0.22448,-0.22448 0.46311,-0.22014 0.63492,-0.63492c0.12148,-0.2933 0.46311,-0.22014 0.63492,-0.63492c0.24297,-0.58659 0.31746,-0.95238 0.63493,-1.26984c0.31746,-0.31746 0.63492,-0.63492 0.63492,-0.63492c0.31746,-0.31747 1.24368,-0.75774 1.5873,-1.5873c0.12149,-0.2933 0.34162,-0.51344 0.63492,-0.63493c0.41478,-0.17181 0.46311,-0.22014 0.63492,-0.63492c0.12148,-0.2933 0.31747,-0.63492 0.31747,-0.63492c0.31746,-0.31746 0.31746,-0.31746 0.63492,-0.95238c0,0 0,-0.31746 0,-0.31746c0,-0.31746 0,-0.63492 0,-0.63492c0.31746,-0.31746 0.31746,-0.31746 0.31746,-0.95238c0,0 0.31746,-0.31746 0.31746,-0.63492c0,-0.31746 0,-0.63492 0,-0.63492c0.31746,-0.31746 0.46311,-0.5376 0.63493,-0.95238c0.12149,-0.2933 0.09298,-0.7279 0.31746,-0.95238c0.22448,-0.22448 0.31746,-0.31746 0.31746,-0.31746c0,-0.31746 0.31746,-0.31746 0.31746,-0.63492c0,-0.31746 0.14565,-0.5376 0.31746,-0.95238c0.12149,-0.2933 0,-0.63492 0,-0.63492c0,-0.31746 0,-0.63492 0.31746,-0.95238c0,0 0,-0.31746 0,-0.31746c0,-0.63492 0.07448,-1.00071 0.31746,-1.5873c0.17181,-0.41478 0.63493,-0.63492 0.95238,-1.26984c0,0 0.14565,-0.22014 0.31746,-0.63492c0.12148,-0.29329 0,-0.31746 0,-0.63492c0,0 0,-0.31746 0,-0.31746c0,-0.31746 0,-0.63492 0,-0.63492c0,-0.31746 -0.31746,-0.31746 -0.63492,-0.63492l0,0" id="svg_6" stroke="#000" fill="none"/>
  <path d="m125.45794,65.30158c0,-0.31746 0,-0.31746 0,-0.95238c0,-0.31746 0,-0.31746 0.31747,-0.63492c0.31746,-0.31746 0.46311,-0.22014 0.63492,-0.63492c0.12149,-0.2933 0.09298,-0.41045 0.31746,-0.63492c0.22448,-0.22448 0.41044,-0.41045 0.63492,-0.63492c0.22448,-0.22448 0,-0.63492 0,-0.95238c0,0 0,-0.31746 0,-0.63492c0,-0.31746 0.19598,-0.65909 0.31747,-0.95238c0.17181,-0.41478 0.46311,-0.53761 0.63491,-0.95238c0.12149,-0.2933 -0.07294,-0.32595 0,-0.63492c0.1631,-0.69088 0.31747,-0.63492 0.31747,-0.95238c0,-0.63492 0,-0.95238 0,-1.26984c0,-0.31746 0.07294,-0.32595 0,-0.63492c-0.1631,-0.69088 -0.31747,-0.95238 -0.31747,-0.95238c0,-0.31746 -0.09297,-0.7279 -0.31745,-0.95238c-0.44896,-0.44896 -0.78058,-0.22014 -0.95238,-0.63492c-0.12149,-0.2933 -0.51344,-0.34163 -0.63492,-0.63492c-0.17181,-0.41478 -0.31746,-0.63492 -0.63492,-0.63492c-0.31747,0 -0.27071,-0.37241 -0.63493,-0.63492c-0.57587,-0.41507 -0.95238,-0.31746 -0.95238,-0.31746c-0.31746,0 -0.63492,0 -0.63492,0c0,0 -0.31747,0.31746 -0.31747,0.31746c0,0.63492 -0.31746,0.63492 -0.31746,0.95238c0,0 -0.31746,0.31746 -0.31746,0.31746c0,0.31746 0,0.95238 0,0.95238c0,0.31746 0,0.63492 0,0.63492c0,0.31746 0,0.63492 0,0.63492c-0.31746,0.63492 -0.31746,0.95238 -0.31746,1.5873c0,0.31746 -0.31746,0.63492 -0.31746,0.95238c0,0.31746 0,0.31746 0,0.63492c0,0 0,0.31746 0,0.63492c0,0.31746 0,0.31746 0,0.63492c0,0 0,0.31746 0,0.31746c-0.31746,0.63492 -0.31746,0.63492 -0.31746,0.95238c0,0.31746 0.09732,0.78057 -0.31747,0.95238c-0.2933,0.12148 -0.34162,0.19597 -0.63492,0.31746c-0.82956,0.34362 -0.99979,0.78548 -1.26984,0.95238c-0.60384,0.3732 -0.63492,0.63492 -0.63492,1.26984c0,0.31746 -0.31746,0.95238 -0.31746,0.95238c-0.31746,0.63492 -0.63492,0.95238 -0.63492,1.26984c0,0 0,0.31747 0,0.31747c0,0.31746 -0.24453,0.64341 -0.31747,0.95238c-0.32619,1.38175 -0.95238,1.90476 -0.95238,1.90476c0,0.31746 0,0.63492 -0.31746,1.26984c0,0 0,0.63492 -0.31746,1.26984c0,0 0,0.31746 0,0.63493c0,0 -0.09298,0.09298 -0.31746,0.31746c-0.22448,0.22448 0,0.31746 0,0.63492c0,0.31746 0.12148,0.34162 0,0.63492c-0.17181,0.41479 -0.51344,0.65909 -0.63493,0.95238c-0.17181,0.41478 -0.31746,0.63492 -0.31746,0.63492c-0.31746,0.31746 -0.31746,0.63493 -0.63492,0.95238c-0.31746,0.31746 -0.78058,0.85506 -0.95238,1.26984c-0.24297,0.58659 0.07294,0.96088 0,1.26984c-0.16309,0.69087 -0.9249,0.75574 -0.31746,2.22222c0.17181,0.41478 0.46311,0.5376 0.63492,0.95238c0.12148,0.2933 0.22015,0.78057 0.63493,0.95238c0.2933,0.12148 0.31746,0.31746 0.63492,0.31746c0,0 0.31746,0.31746 0.31746,0.31746c0.31746,0 0.63493,0 0.95238,0c0,0 0.31746,0 0.31746,0c0.63492,0 0.63492,0 0.95238,0c0,0 0.31746,0 0.63493,0c0.31746,0 0.31746,0 0.63492,0c0,0 0.32595,-0.24452 0.63492,-0.31746c0.69088,-0.16309 2.16649,-0.98345 2.53969,-1.5873c0.1669,-0.27005 0.5376,-0.78057 0.95238,-0.95238c0.2933,-0.12148 0.63492,0 0.63492,0c0.31747,-0.63492 0.37241,-0.58817 0.63493,-0.95238c0.41506,-0.57587 0.78057,-0.85506 0.95238,-1.26984c0.12148,-0.2933 -0.09732,-0.46311 0.31746,-0.63492c0.2933,-0.12148 0.31746,-0.63493 0.31746,-0.63493c0.31747,-0.31746 -0.13148,-0.50343 0.31747,-0.95238c0.22448,-0.22448 0.37651,-0.21986 0.95238,-0.63493c0.36421,-0.26251 0.82088,-0.18596 1.26984,-0.63492c0.22448,-0.22448 0.2707,-0.37241 0.63493,-0.63492c0.57587,-0.41505 0.65587,-0.27863 1.26984,-0.63493c0.98999,-0.57452 1.14835,-0.97654 1.26984,-1.26984c0.17181,-0.41478 0.63492,-0.63493 0.95238,-0.95238c0.31747,-0.31747 0.68326,-0.39194 1.26985,-0.63492c0.41478,-0.17181 0.63492,-0.63492 0.95238,-0.63492c0.31746,0 0.72974,0.01633 1.26984,-0.31747c0.60384,-0.37319 0.63492,-0.63492 1.26985,-0.63492c0.31746,0 1.59579,-0.24452 1.90475,-0.31746c0.69087,-0.16309 1.26984,-0.63492 1.26984,-0.63492c0.63493,-0.31746 1.04538,-0.72791 1.26985,-0.95238c0.22447,-0.22448 0.31746,-0.31746 0.31746,-0.31746c0.31746,-0.63492 2.28127,-2.12461 2.85715,-2.53968c0.36421,-0.26251 0.36578,-0.39195 0.95238,-0.63492c0.41478,-0.17181 0.95238,-0.63492 1.26984,-0.63492c0,0 0.09299,-0.09298 0.31746,-0.31746c0.22447,-0.22448 0.31746,0 0.95238,0c0,0 -0.15665,0.2789 -0.31746,1.26984c-0.05086,0.31337 -0.14565,0.5376 -0.31746,0.95238c-0.8504,2.05306 0,2.22222 0,2.53968c0,0.31747 0,0.63493 0,0.95238c0,0 0,0.31746 0,0.63492c0,0 -0.31746,0.63492 -0.31746,0.95238c0,0 0,0.31746 -0.31746,0.63492c0,0 0,0.63492 0,0.95238c0,0 0,0.31747 0,0.63493c0,0.31746 -0.14565,0.5376 -0.31746,0.95238c-0.12149,0.2933 0,0.95238 0,0.95238c0,0.63492 0.09761,1.01143 -0.31746,1.5873c-0.26251,0.36421 -0.63492,0.63492 -0.63492,0.95238c0,0.31746 0.24298,0.68325 0,1.26984c-0.17181,0.41478 -0.31746,0.31746 -0.31746,0.63492c0,0 0,0.31746 0,0.63492c0,0.31746 0,0.31746 0,0.63493c0,0.31746 0,0.63492 0,0.95238c0,0.31746 0,0.63492 0,1.90476c0,0.31746 -0.31746,0.63492 -0.31746,0.63492c0,0.31747 0,0.63493 0,0.95238c0,0 0,0.31746 0,0.31746c0,0.63492 0.03107,0.89664 0.63492,1.26984c0.27005,0.1669 0.57918,-0.28638 0.95238,0.31746c0.1669,0.27005 0.31746,0.63492 0.63492,0.95238c0.63492,0.63493 0.78056,0.53761 0.95238,0.95238c0.12149,0.2933 0.31747,0.63492 0.63493,0.95238c0.31746,0.31746 0.72791,0.41045 0.95238,0.63493c0.44896,0.44895 0.22014,1.09803 0.63492,1.26984c0.29329,0.12148 0.50922,0.56301 0.95238,0.63493c0.7007,0.11371 0.78056,-0.53761 0.95238,-0.95238c0.12149,-0.2933 0,-0.63492 0,-0.63492c0,-0.31746 0,-0.63493 0,-0.63493c-0.31746,-0.31746 0.1315,-0.50343 -0.31746,-0.95238c-0.22447,-0.22448 -0.39194,-0.36579 -0.63492,-0.95238c-0.17181,-0.41478 -0.31746,-0.31746 -0.31746,-0.63492c0,0 0,-0.63492 0,-0.63492c0,-0.31746 0,-0.95238 0,-0.95238c0,-0.31746 0,-0.31746 0,-0.63492c0,0 0,-0.63492 0,-0.95238c0,-0.31747 0,-0.63493 0,-0.95238c0,-0.31746 0,-0.63492 0,-0.95238c0,-1.26984 0,-1.90476 0,-2.22223c0,-0.31746 0,-0.63492 0,-0.63492c0,-0.31746 0,-0.63492 0,-0.95238c0,0 -0.12149,-0.34162 0,-0.63493c0.17181,-0.41478 0.4631,-0.5376 0.63492,-0.95238c0.12149,-0.2933 0.31746,-0.31746 0.31746,-0.63492c0,-0.31747 0,-0.63493 0,-0.63493c0.31746,-0.31746 0.41045,-0.41043 0.63493,-0.63492c0.22447,-0.22448 0.09299,-0.41044 0.31746,-0.63492c0.22449,-0.22448 0,-0.95238 0,-0.95238c0,-0.31746 0,-0.63492 0,-0.63492c0.31746,-0.31746 0.31746,-0.63493 0.31746,-0.95238c0,0 0,-0.31746 0.31746,-0.95238c0,0 -0.12149,-0.34162 0,-0.63493c0.17181,-0.41478 0.31746,-0.63492 0.31746,-0.63492c0,-0.31746 0,-0.63492 0,-0.95238c0,0 0.14565,-0.22014 0.31746,-0.63493c0.24297,-0.58659 0.63492,-3.1746 0.63492,-3.49206c0,-0.31746 0,-0.63492 0,-0.63492c0,-0.31746 0,-0.31746 0,-0.95238c0,-0.31746 0,-0.31746 0,-0.63492c0,-0.31746 0,-0.63492 0,-0.63492c-0.31746,-0.31746 -0.63492,-0.31746 -0.63492,-0.31746c-0.31746,-0.31746 -0.31746,-0.31746 -0.63492,-0.63492c0,0 -0.41045,-0.09298 -0.63492,-0.31746c-0.22447,-0.22448 -0.31746,-0.95238 -0.31746,-1.26984c0,0 0.0976,-0.37651 -0.31747,-0.95238c-0.26251,-0.36421 -0.31746,-0.63492 -0.31746,-0.63492c0,-0.31746 -0.4631,-0.22014 -0.63492,-0.63492c-0.12149,-0.2933 -0.31746,-0.63492 -0.63492,-0.63492c0,0 -0.31746,-0.31746 -0.95238,-0.31746c0,0 -0.09299,-0.41045 -0.31746,-0.63492c-0.22447,-0.22448 -0.63492,0 -0.95238,0c-0.31747,0 -0.63493,0 -0.63493,0c-0.31746,0 -0.63492,0 -1.26984,0c0,0 -0.64638,0.19739 -1.26984,0.31746c-1.67874,0.3233 -2.85715,0.95238 -2.85715,0.95238c-0.63492,0.31746 -0.63492,0.31746 -0.95238,0.63492c-0.31746,0.31746 -0.22014,0.46311 -0.63492,0.63492c-0.29329,0.12149 -0.41045,0.09298 -0.63493,0.31746c-0.22447,0.22448 -0.63492,0 -0.95238,0.31746c-0.31746,0.31746 -0.63492,0.31746 -0.63492,0.31746c-0.31746,0 -0.18857,0.48032 -0.95238,0.95238c-0.85396,0.52778 -1.36284,0.41045 -1.58731,0.63492c-0.22447,0.22448 -0.57896,1.10675 -1.26984,1.26984c-0.30896,0.07294 -0.5376,0.46312 -0.95238,0.63492c-0.29329,0.12149 -1.01143,0.21985 -1.58731,0.63492c-0.36421,0.26251 -0.39891,0.76789 -1.90475,1.26984c-0.60234,0.20078 -0.64342,-0.07294 -0.95238,0c-0.69087,0.16309 -1.26984,0.63492 -1.5873,0.95238c-0.31747,0.31746 -0.51344,0.34162 -0.63493,0.63492c-0.17181,0.41478 -0.63492,0.63493 -0.95238,0.63493l0,0l-0.31746,0l-0.31747,0" id="svg_8" stroke="#000" fill="none"/>
  <path d="m170.85477,48.47619c0,0.31746 -0.31746,0.63492 -0.31746,0.63492c0,0.31746 -0.19597,0.65909 -0.31746,0.95238c-0.17181,0.41478 -0.43895,0.34163 -0.31746,0.63492c0.17181,0.41478 0.31746,0.63492 0.31746,0.63492c0.31746,0.31746 0.63492,0.63492 0.95238,0.63492c0,0 0.31746,0.31746 0.31746,0.63492c0,0.31746 0.63493,0.95238 0.63493,0.95238c0.31746,0.31746 0.41045,0.41045 0.63492,0.63492c0.22447,0.22448 0.63492,0.31746 0.63492,0.63492c0,0.31746 0,0.95238 0.31746,1.5873c0,0 0,0.63492 0,0.63492c0,0.31746 0,0.63492 0,0.95238c0,0.31746 0,0.63492 0,0.63492c0,0.31746 0,0.63492 0,0.95238c0,0.31746 0,1.90476 0,2.22222c0,0.31746 0,0.31746 0,0.95238c0,0.31746 -0.19597,0.34163 -0.31746,0.63492c-0.17181,0.41478 -0.63492,1.26984 -0.63492,1.5873c0,0 -0.31746,0.63493 -0.31746,0.63493c-0.31746,0.31746 -0.63493,0.95238 -0.63493,0.95238c0,0.31746 0,0.63492 0,0.63492c0,0.31747 0,0.31747 0,0.63493c0,0.31746 0,0.63492 0,0.95238c0,0.31746 0,0.95238 0,1.26984c0,0.63492 0,0.95238 0,1.26984c0,0.31747 0,1.26984 0,1.5873c0,0.31746 0,0.63493 0,0.95238c0,0.63492 0,0.95238 0,0.95238c0,0.31746 0,0.63493 0,0.95238c0,0.31746 0,0.31746 0,0.63492c0,0.63492 0,1.5873 0,1.90476c0,0.31746 0,0.31746 0,0.95238c0,0 0,0.31747 0,0.31747c0,0.31746 0,0.63492 0,0.95238c0,0 0,0.63492 0,0.63492c0,0.31747 0,0.63493 0,0.95238c0,0 0,0.31746 0,0.31746c0,0.31746 0,0.63492 0,0.95238c0,0 0,0.31746 0,0.63492c0,0 0,0.31746 0,0.63492c0,0.31746 0.31747,0.63493 0.63493,0.95238c0,0 0.31746,0 0.31746,0c0.31746,0 0.63492,0.31746 0.63492,0.31746c0.31746,0 0.31746,0 0.63492,0c0,0 0.31746,0 0.63492,0c0.31746,0 0.32596,-0.07294 0.63492,0c0.69087,0.16309 1.26985,0.63492 1.58731,0.95238c0,0 0.32596,0.07294 0.63492,0c0.69087,-0.16309 2.16626,-1.10674 2.85715,-1.26984c0.30896,-0.07294 0.65909,0.12148 0.95238,0c0.41478,-0.17181 0.5376,-0.46311 0.95238,-0.63493c0.29329,-0.12149 0.31746,0 0.63492,-0.31746c0.31746,-0.31746 0.31746,-0.63492 0.31746,-0.63492c0,-0.31746 0,-0.31746 0,-0.95238c0,0 0.19597,-0.34162 0.31746,-0.63492c0.17181,-0.41478 0.63493,-0.63492 0.63493,-0.95238c0,-0.31747 0.31746,-0.63493 0.31746,-0.63493c0.31746,-0.31746 0.41045,-0.7279 0.63492,-0.95238c0.22447,-0.22448 0.57918,-0.03107 0.95238,-0.63493c0.1669,-0.27005 0.65909,-0.51344 0.95238,-0.63492c0.41478,-0.17181 0.22014,-0.78057 0.63492,-0.95238c0.58661,-0.24298 0.95239,-0.31746 1.26985,-0.63493c0,0 -0.07182,-0.90006 1.5873,-1.5873c0.29329,-0.12148 0.34163,-0.19598 0.63492,-0.31747c0.41478,-0.17181 0.63493,-0.31746 0.95239,-0.63492c0.31746,-0.31746 0.63492,-0.63492 0.95238,-0.95238c0.31746,-0.31747 0.31746,-0.63493 0.63492,-0.95238c0,0 0.31746,-0.31746 0.63492,-0.63492c0.31746,-0.31746 0.31746,-0.31746 -0.63492,1.26984c0,0 0,0.63493 0,0.63493c-0.31746,0.31746 -0.51343,0.97654 -0.63492,1.26984c-0.17181,0.41479 -0.31746,0.31747 -0.31746,0.63493c0,0 -0.09299,0.41044 -0.31746,0.63492c-0.22447,0.22448 -0.4631,0.22014 -0.63492,0.63492c-0.12149,0.2933 -0.093,0.72791 -0.31747,0.95238c-0.22447,0.22448 -0.31746,0.31746 -0.63492,0.63492c0,0 -0.19597,0.34162 -0.31746,0.63492c-0.17181,0.41479 -0.63492,0.63493 -0.63492,0.63493c-0.63492,0.31746 -0.63492,0.63492 -0.95238,0.95238c0,0 -0.31746,0.31746 -0.31746,0.63493c0,0.31746 -0.63492,0.95238 -0.63492,1.26984c0,0 0,0.31746 0,0.31746c0,0.31747 0,0.63493 0,0.63493c-0.31747,0.63492 -0.31747,0.95238 -0.31747,0.95238c0,0.63493 0.09732,1.09804 -0.31746,1.26984c-0.29329,0.12148 -0.19597,0.34162 -0.31746,0.63492c-0.17181,0.41478 -0.31746,0.31746 -0.31746,0.63492c0,0 -0.41045,0.41045 -0.63492,0.63493c-0.22447,0.22448 -0.31746,0.63492 -0.31746,0.95238c0,0 -0.31746,0.31746 -0.63492,0.63493c0,0 0.22447,0.41044 0,0.63492c-0.22447,0.22448 -0.31746,0.31746 -0.31746,0.31746c0,0.31746 -1.26985,1.90476 -1.26985,1.90476c-0.31746,0.31746 -0.09297,0.72791 -0.31746,0.95238c-0.22447,0.22448 -0.63492,0.31746 -0.95238,0.63492c-0.31746,0.31746 -0.78056,0.22014 -0.95238,0.63492c-0.12149,0.2933 -0.34163,0.51343 -0.63492,0.63492c-0.41478,0.17181 -0.31746,0.31747 -0.63492,0.63493c-0.31747,0.31747 -0.63493,0.63492 -0.63493,0.63492c0,0.31746 0,0.63492 0,0.95238c0,0 -0.31746,0.31746 -0.31746,0.31746c0,0.31746 0,0.31746 -0.31746,0.95238c-0.31746,0.63493 -0.31746,0.63493 -0.31746,0.95238c0,0 0.12149,0.34162 0,0.63492c-0.17181,0.41478 -0.63492,0.95238 -0.63492,0.95238c0,0.31746 -0.31746,0.63492 -0.31746,0.95238c0,0.31746 0,0.31746 -0.31746,0.63492c0,0 -0.31746,0.31746 -0.31746,0.63493c0,0 -0.31746,0.31746 -0.31746,0.31746c0,0.31746 0.12149,0.34162 0,0.63492c-0.17181,0.41478 -0.19597,0.65909 -0.31746,0.95238c-0.17181,0.41479 -0.31747,0.31746 -0.63493,0.63492c0,0 -0.14565,0.5376 -0.31746,0.95238c-0.12149,0.2933 -0.19597,0.34163 -0.31746,0.63493c-0.17181,0.41478 -0.31746,0.63492 -0.31746,0.63492c0,0.31746 0,0.31746 0,0.63492c0,0.63493 -0.14565,0.85506 -0.31746,1.26984c-0.12149,0.2933 -0.31746,0.63492 -0.31746,0.63492c0,0.31746 -0.31746,0.63493 -0.31746,0.63493c0,0.31746 -0.31746,0.63492 -0.31746,0.95238c0,0.31746 0,0.31746 0,0.63492c0,0 0,0.31747 -0.31746,0.63493c-0.31746,0.31746 -0.31746,0.63492 -0.31746,0.63492c0,0.31746 -0.24298,0.36579 0,0.95238c0.17181,0.41478 0.95238,1.26984 0.95238,1.26984c0.31746,0.63493 0.63492,0.95238 0.63492,1.26984c0,0 0.4631,0.22014 0.63492,0.63492c0.12149,0.2933 0.31746,0.63493 0.31746,0.63493c0.31746,0 0.31746,0 0.63492,0c0.31747,0 0.31747,0 0.63493,0c0,0 0.31746,0 0.31746,0c0.31746,0 0.63492,0 0.63492,0c0.31746,0 0.72791,0.22448 0.95238,0c0.22449,-0.22448 0.31746,-0.31747 0.31746,-0.63493c0,-0.31746 0,-0.31746 0,-0.63492c0,0 0,-0.31746 0,-0.31746c0,-0.31746 0,-0.63493 0,-0.63493c0,-0.31746 0.31746,-0.31746 0.31746,-0.63492c0,0 0,-0.31746 0.31746,-0.63492c0.31746,-0.31746 0.31746,-0.31746 0.31746,-0.95238c0,0 0.31747,-0.63492 0.31747,-0.63492c0,-0.31746 0.31746,-0.63492 0.31746,-0.63492c0,-0.31747 0.14565,-0.22015 0.31746,-0.63493c0.12149,-0.2933 0.09299,-0.41044 0.31746,-0.63492c0.22447,-0.22448 0.31746,-0.31746 0.31746,-0.63492c0,0 -0.12149,-0.34163 0,-0.63493c0.17181,-0.41478 0.31746,-0.31746 0.31746,-0.63492c0,-0.31746 0.19597,-0.65908 0.31746,-0.95238c0.17181,-0.41479 0.24452,-0.32596 0.31746,-0.63493c0.16309,-0.69087 0.41045,-1.04536 0.63492,-1.26984c0.22447,-0.22448 0.41045,-0.09299 0.63492,-0.31747c0.22447,-0.22448 -0.12149,-0.34162 0,-0.63492c0.17181,-0.41478 0.97656,-1.78328 1.26985,-1.90476c0.41478,-0.17181 0.31746,-0.63492 0.31746,-0.63492c0,-0.31746 0.14565,-0.53761 0.31746,-0.95238c0.12149,-0.2933 -0.24297,-0.36579 0,-0.95238c0.17181,-0.41478 0.19597,-0.34162 0.31746,-0.63492c0.17181,-0.41479 0.31746,-0.63493 0.31746,-0.63493c0,-0.63492 -0.12149,-0.65908 0,-0.95238c0.17181,-0.41478 0.47183,-0.26151 0.63492,-0.95238c0.07294,-0.30897 0.15437,-0.26151 0.31746,-0.95238c0.07294,-0.30897 0.31746,-0.95238 0.31746,-0.95238c0.31746,-0.31746 0.09299,-0.7279 0.31746,-0.95238c0.22449,-0.22449 0.31747,-0.63493 0.63493,-0.95238c0,0 0.09299,-0.41044 0.31746,-0.63492c0.22447,-0.22448 0.31746,-0.31746 0.31746,-0.31746c0.31746,-0.31746 0.72791,-0.41044 0.95238,-0.63492c0.44896,-0.44896 -0.06003,-0.64066 0,-0.95238c0.32329,-1.67873 0.63492,-1.90476 0.95238,-2.22222c0,0 0,-0.31746 0,-0.63492c0,-0.31747 0.31746,-0.63493 0.31746,-0.63493c0.31746,-0.63492 0.63493,-0.95238 0.63493,-1.26984c0,-0.31747 0.04741,-0.46803 0.31746,-0.63493c0.60384,-0.37319 0.63492,-0.95238 0.63492,-1.26984c0,-0.31746 0.09299,-0.41045 0.31746,-0.63493c0.22447,-0.22448 0.09299,-0.7279 0.31746,-0.95238c0.22447,-0.22448 0.5376,-0.46311 0.95238,-0.63492c0.29329,-0.12148 0.34163,-0.19598 0.63492,-0.31747c0.41478,-0.17181 0.63492,-0.63492 0.63492,-0.95238c0,-0.31746 0.63493,-0.95238 0.63493,-0.95238c0.31746,-0.31746 0.31746,-0.63492 0.63492,-0.95238c0,0 0.4631,-0.5376 0.63492,-0.95238c0.12149,-0.2933 0,-0.31746 0,-0.63492c0,-0.31746 0.31746,-0.31746 0.31746,-0.63492c0,0 -0.09761,-0.37651 0.31746,-0.95238c0.26251,-0.36421 0.31746,-0.95238 0.31746,-0.95238c0,-0.31746 0.31746,-0.95238 0.63492,-1.26984c0,0 -0.12149,-0.34162 0,-0.63492c0.17181,-0.41478 0.31746,-0.31746 0.31746,-0.95238c0,-0.31746 0.05495,-0.58817 0.31746,-0.95238c0.83014,-1.15175 0.68988,-1.54055 0.95239,-1.90476c0.41507,-0.57587 0.65909,-1.46582 0.95238,-1.5873c0.41478,-0.17181 0.41045,-0.41044 0.63492,-0.63492c0.22447,-0.22448 0.15437,-0.57896 0.31746,-1.26984c0.07294,-0.30897 0.31746,-0.95238 0.63492,-1.26984c0,0 0,-0.31747 0,-0.31747c0,-0.63492 0,-0.95238 0,-0.95238c0.31746,-0.63492 0.31746,-0.63492 0.31746,-0.95238c0,0 0,-0.31746 0,-0.63492c0,0 0.09299,-0.09297 0.31747,-0.31746c0.22447,-0.22448 0.14565,-0.5376 0.31746,-0.95238c0.12149,-0.29329 -0.12149,-0.34163 0,-0.63492c0.17181,-0.41478 0.63492,-0.63492 0.63492,-0.63492c0.31746,-0.63492 0.37241,-1.22309 0.63492,-1.5873c0.41507,-0.57587 0.63492,-0.95238 0.63492,-1.26984c0,-0.31746 0,-0.63492 0,-0.63492c0,-0.31746 0,-0.31746 0.31746,-0.95238c0,0 0.31746,-0.31746 0.63492,-0.63492c0,0 0,-0.31746 0.31746,-0.63492c0,0 0,-0.31746 0,-0.31746c0.31747,-0.63492 0.80675,-0.85506 0.63493,-1.26984c-0.12149,-0.29329 -0.63493,0 -0.63493,0c-0.31746,0 -0.41045,0.22448 -0.63492,0c-0.22447,-0.22448 -0.31746,-0.63492 -0.63492,-0.63492c0,0 -0.31746,0 -0.31746,0c-0.31746,-0.31746 -0.63492,-0.31746 -0.63492,-0.31746c-0.63492,-0.31746 -0.72791,-0.09298 -0.95238,-0.31746c-0.22447,-0.22448 -0.63493,-0.31746 -0.95239,-0.63492c0,0 -0.63492,0 -0.63492,0c-0.31746,-0.31746 -0.63492,-0.31746 -0.95238,-0.31746c-0.31746,0 -0.21985,0.05905 -0.63492,0.63492c-0.26251,0.36421 -0.57918,0.03107 -0.95238,0.63492c-0.1669,0.27005 -0.093,0.72791 -0.31747,0.95238c-0.22447,0.22448 -0.63492,0.31746 -0.63492,0.31746c-0.31746,0.31746 -0.4631,0.22014 -0.63492,0.63492c-0.12149,0.2933 0.12149,0.34163 0,0.63492c-0.17181,0.41478 -0.63492,0.95238 -0.63492,0.95238c0,0.31746 0,0.31746 -0.31746,0.63492c0,0 0,0.31746 0,0.63492c0,0 -0.31746,0.31746 -0.31746,0.63492c0,0 0,0.31746 -0.31746,0.63492c0,0 -0.31746,0.31746 -0.31746,0.63492c0,0.31746 0,0.63492 -0.31746,1.26984c0,0 -0.31746,0.31746 -0.63493,0.63492c-0.31746,0.31746 -0.63492,0.63492 -1.26984,0.95238c0,0 -0.4631,0.22014 -0.63492,0.63492c-0.12149,0.29329 -0.15437,0.26151 -0.31746,0.95238c-0.07294,0.30897 -0.31746,0.63492 -0.31746,0.95238c0,0 0,0.31746 0,0.31746c0,0.31746 -0.4631,0.5376 -0.63492,0.95238c-0.24298,0.58659 -0.51343,0.97655 -0.63492,1.26984c-0.17181,0.41479 -0.31747,0.31746 -0.63493,0.63492c-0.31746,0.31747 -0.95238,0.95238 -1.26984,1.26984c-0.31746,0.31746 -0.72791,0.41044 -0.95238,0.63492c-0.22447,0.22448 -0.8289,0.29462 -1.58731,0.95238c-0.53627,0.4651 -0.95238,0.95238 -0.95238,0.95238c0,0.31746 -0.37241,0.58817 -0.63492,0.95238c-0.41507,0.57587 -0.20938,0.65388 -0.31746,0.95238c-0.84407,2.33135 -1.54056,2.27718 -1.90477,2.53969c-0.57587,0.41507 -0.90562,0.68987 -1.26984,0.95238c-0.57587,0.41506 -0.95238,0.63492 -0.95238,0.63492c-0.63492,0.31747 -0.78056,0.22015 -0.95238,0.63493c-0.12149,0.2933 -0.53761,0.46311 -0.95239,0.63492c-0.29329,0.12148 -0.31746,0.31746 -0.63492,0.63492c-0.31746,0.31746 -0.8065,0.61794 -0.95238,0c-0.16309,-0.69087 -0.31746,-0.63492 -0.31746,-0.95238c0,0 0,-0.31746 0,-0.63492c0,-0.31747 0,-0.31747 0,-0.63493c0,0 0,-0.63492 0,-0.63492c-0.31746,-0.31746 -0.63492,-0.31746 -0.63492,-0.63492c0,0 0,-0.31747 0,-0.63493c0,0 0,-0.31746 0,-0.31746c0,-0.31746 0,-0.63492 0,-0.95238c0,0 0.14565,-0.22015 0.31746,-0.63493c0.12149,-0.2933 0,-0.63492 0,-0.63492c0,-0.31746 0,-0.31746 0,-0.63492c0,0 0.19597,-0.34163 0.31746,-0.63493c0.17181,-0.41478 0.63492,-0.95238 0.63492,-0.95238c0,-0.31746 0.09299,-0.72791 0.31746,-0.95238c0.22447,-0.22448 0.31746,-0.31746 0.31746,-0.31746c0,-0.31746 0.31746,-0.63492 1.26985,-2.53968c0,0 0,-0.31746 0,-0.31746c0,-0.31746 0,-0.63493 0,-0.95238c0,-0.31746 0.31746,-0.31746 0.31746,-0.63492c0,-0.31746 -0.12149,-0.34162 0,-0.63492c0.17181,-0.41478 0.31746,-0.63492 0.31746,-0.63492c0,-0.31746 0.14565,-0.22014 0.31746,-0.63492c0.12149,-0.29329 0,-0.63492 0,-0.63492c0,-0.31746 0,-0.63492 0,-0.63492c0,-0.63492 0,-0.63492 0,-0.95238c0,0 0,-0.31746 0,-0.31746c0,-0.31746 0,-0.63492 0,-0.63492c0,-0.31746 0,-0.31746 0,-0.63492c0,0 0,-0.31746 0,-0.63492c0,-0.31746 0.15753,-0.28819 0.31746,-1.5873c0.03879,-0.31508 0,-0.31746 0,-0.63492c0,0 0,-0.31746 0,-0.31746c0,-0.31746 0,-0.63492 0,-0.95238c0,0 0,-0.31746 0,-0.31746c0,-0.31746 0,-0.31746 0,-0.63492c0,-0.31746 0,-0.31746 -0.31746,-0.63492c0,0 -0.51343,-0.34163 -0.63492,-0.63492c-0.17181,-0.41478 -0.68988,-0.58817 -0.95239,-0.95238c-0.41507,-0.57587 -0.31746,-0.63492 -0.63492,-0.95238c0,0 -0.22014,-0.78057 -0.63492,-0.95238c-0.29329,-0.12149 -0.41045,0.22448 -0.63492,0c-0.22449,-0.22448 -0.31746,-0.31746 -0.31746,-0.31746c-0.31746,0 -0.63492,-0.31746 -0.95238,-0.63492c0,0 -0.31747,0 -0.31747,0c-0.31746,-0.31746 -0.95238,-0.31746 -0.95238,-0.31746c-0.31746,0 -0.63492,0 -0.95238,0c0,0 -0.64342,-0.07294 -0.95238,0c-0.69087,0.16309 -0.91382,0.47411 -1.90477,0.63492c-0.31335,0.05085 -0.22014,0.14565 -0.63492,0.31746c-0.29329,0.12149 -0.63492,0 -0.63492,0.31746c0,0.31746 0,0.31746 0,0.63492l0,0" id="svg_9" stroke="#000" fill="none"/>
  <path d="m225.14049,35.14285c0.31746,0.31746 0.31746,0.95238 0.63492,1.26984c0,0 0.31746,0.31746 0.63492,0.63492c0,0 0.34163,-0.12149 0.63492,0c0.41478,0.17181 0.34856,0.57919 0.95239,0.95238c0.5401,0.3338 0.63492,0.31746 0.95238,0.31746c0,0 0.45042,0.13297 0.95238,0.63492c0.50195,0.50195 0.95238,0.31746 1.26984,0.63492c0,0 0.31747,0.31746 0.63493,0.31746c0.31746,0 0.63492,0 0.63492,0c0.31746,0 0.31746,0 0.63492,0c0.31746,0 0.41045,-0.09298 0.63492,-0.31746c0.22447,-0.22448 0.63492,-0.31746 0.95238,-0.63492c0.31746,-0.31746 0.31746,-0.63492 0.31746,-0.95238c0,-0.31746 0,-0.95238 0.31746,-1.26984c0,0 0,-0.63492 0,-0.63492c0,-0.31746 0,-0.31746 0,-0.63492c0,-0.31746 0,-0.95238 0,-0.95238c0,-0.31746 -0.31746,-0.63492 -0.31746,-0.95238c0,0 -0.09299,-0.09299 -0.31746,-0.31746c-0.22447,-0.22448 -0.31746,-0.63492 -0.31746,-1.26984c0,0 0,-0.31746 -0.31746,-0.63492c-0.31746,-0.31746 -0.31746,-0.31746 -0.63492,-0.63492c0,0 -0.31746,-0.63492 -0.63492,-1.26984c0,0 -0.31746,-0.63492 -0.63492,-0.63492c-0.31746,0 -0.31746,0 -0.63492,0c-0.31747,0 -0.63493,0 -0.95239,0c-0.63492,0 -0.63492,0 -0.95238,0c0,0 -0.31746,0 -0.63492,0c0,0 -0.31746,0 -0.31746,0c-0.31746,0 -0.31746,0 -0.63492,0c-0.31746,0 -0.46312,-0.09733 -0.63493,0.31746c-0.12149,0.29329 0,0.63492 0,0.63492c0,0.31746 -0.31746,0.31746 -0.31746,0.31746c-0.31746,0.31746 -0.63492,0.31746 -0.63492,0.31746c-0.31746,0 -0.31746,0 -0.31746,0.31746c0,0.31746 0,0.31746 -0.31746,0.63492c0,0 0,0.31746 0,0.31746c0,0.31746 0,0.63492 0,0.63492c0,0.31746 0,0.63492 0,0.63492c0,0.31746 0,0.31746 0,0.63492c0,0.31746 0,0.63492 -0.31746,0.95238l-0.31746,0.63492l-0.31746,0" id="svg_10" stroke="#000" fill="none"/>
  <path d="m213.71191,81.49207c0,0.31746 0,0.95238 0.31746,1.90476c0.31746,0.95238 0.34163,1.14835 0.63492,1.26984c0.41478,0.17181 0.9998,0.46803 1.26985,0.63493c0.60384,0.37319 0.31746,1.26984 0.63492,1.5873c0,0 0.31746,0.95238 0.31746,0.95238c0.31746,0.31746 0.63492,0.31746 0.95238,0.31746c0,0 0.31746,0 0.31746,0c0.31746,0 0.78929,-0.26151 0.95238,-0.95238c0.14587,-0.61794 0,-1.26984 0,-1.26984c0,-0.31746 -0.22447,-0.41044 0,-0.63492c0.22447,-0.22448 0.51344,-0.65909 0.63493,-0.95238c0.17181,-0.41478 0.31746,-0.95238 0.31746,-0.95238c0,-0.31747 0,-0.95238 0,-1.26984c0,0 0,-0.31746 0,-0.31746c0,-0.31746 0,-0.63493 0,-0.63493c0.31746,-0.63492 0.31746,-0.95238 0.31746,-1.90476c0,-0.63492 0,-0.63492 0,-0.95238c0,0 -0.12149,-0.34162 0,-0.63492c0.17181,-0.41478 0.31746,-0.31746 0.31746,-0.63493c0,0 0,-0.31746 0,-0.63492c0,0 0.09299,-0.41044 0.31746,-0.63492c0.22447,-0.22448 0,-0.31746 0,-0.63493c0,-0.31746 0,-0.63492 0,-0.63492c0,-0.31746 0.14565,-0.5376 0.31746,-0.95238c0.12149,-0.2933 -0.14587,-0.33445 0,-0.95238c0.16309,-0.69087 0.63492,-0.95238 0.63492,-1.26984c0,-0.31746 -0.07294,-0.32595 0,-0.63492c0.16309,-0.69087 0.31746,-0.63492 0.31746,-1.26984c0,-0.31746 -0.44896,-0.50343 0,-0.95238c0.22447,-0.22448 0.31746,-0.31746 0.31746,-0.31746c0,-0.31746 0.15437,-0.26151 0.31746,-0.95238c0.07294,-0.30897 0,-0.31746 0,-0.63492c0,-0.31746 0.31746,-0.63492 0.31746,-0.95238c0,0 0,-0.31747 0,-0.63493c0,0 0,-0.31746 0,-0.63492c0,0 0.30324,-0.17433 0.63493,-1.26984c0.092,-0.30384 0,-0.63492 0.31746,-0.95238c0,0 0.31746,-0.63492 0.31746,-0.63492c0.31746,0 0.63492,-0.31746 0.63492,-0.31746c0,-0.31746 0,-1.26984 0.31746,-1.5873c0,0 0,-0.31746 0,-0.63492c0,0 0,-0.31746 0,-0.31746c0,-0.31746 0,-0.31746 0,-0.63492c0,-0.31746 -0.02417,-0.51343 -0.31746,-0.63492c-0.41478,-0.17181 -0.31746,-0.63492 -0.63492,-0.95238c-0.95238,-0.95238 -1.29402,-0.83089 -1.58731,-0.95238c-0.41478,-0.17181 -0.63492,-0.63492 -0.95238,-0.63492c0,0 -0.31746,-0.31746 -0.31746,-0.31746c-0.31746,0 -0.31746,0 -0.63492,0c-0.31746,0 -0.63492,0 -0.63492,0c-0.31746,0 -0.31746,0.31746 -0.31746,0.31746c0,0.63492 0,0.63492 0,0.95238c0,0 0,0.31746 0,0.31746c-0.31746,0.63492 -0.31746,0.95238 -0.31746,1.26984c0,0 -0.31747,0.63492 -0.31747,0.63492c-0.31746,0.31746 -0.51343,0.97655 -0.63492,1.26984c-0.17181,0.41478 -0.31746,0.63492 -0.31746,0.63492c0,0.63492 -0.63492,2.22223 -0.63492,2.22223c0,0.31746 0.12149,0.97655 0,1.26984c-0.34361,0.82956 -0.56198,0.96087 -0.63492,1.26984c-0.16309,0.69087 -0.31746,0.63492 -0.31746,0.95238c0,0.31746 0,0.31746 0,0.63492c0,0.31746 0,0.63492 -0.31746,0.95238c-0.31746,0.31747 -0.63492,0.63493 -0.63492,0.95238c0,0.31746 -0.31746,0.95238 -0.31746,0.95238c0,0.31746 0,0.31746 0,0.63493c0,0.31746 0,0.63492 0,0.95238c0,0.31746 0,0.63492 0,0.95238c0,0 0,0.31746 -0.31747,0.63492c0,0 0,0.63492 0,0.63492c0,0.31746 0.12149,0.65909 0,0.95238c-0.17181,0.41478 -0.4631,0.5376 -0.63492,0.95238c-0.24298,0.58659 0.14587,0.65191 0,1.26984c-0.16309,0.69087 -0.31746,0.95238 -0.31746,0.95238c0,0.31747 0.12149,0.65909 0,0.95238c-0.17181,0.41478 -0.31746,0.63492 -0.31746,0.95238c0,0.31746 0,0.31746 0,0.63493c0,0.31746 0,0.95238 0,1.26984l0,0.31746l-0.31746,0l0,0.31747" id="svg_11" stroke="#000" fill="none"/>
  </g>
</svg>